<svg xmlns="http://www.w3.org/2000/svg" width="1440" height="1024" viewBox="0 0 1440 1024">
    <g fill="none" fill-rule="evenodd" stroke-linecap="square" stroke-width="3">
        <g stroke="#72FACA">
            <path d="M92.219 50.478c78.277 57.997 120.117 88.749 125.096 91.714 8.698 5.18 92.222 50.324 125.483 91.399 35.48 43.813 57.98 124.831 63.313 141.745 5.332 16.913 30.92 100.555 63.7 141.43 22.837 28.475 107.384 80.964 125.096 91.713 17.712 10.75 73.72 27.477 125.484 91.4 48.972 60.476 54.592 119.853 63.312 141.744 5.813 14.594 27.046 61.738 63.7 141.43" transform="translate(-263 -280) translate(0 475)"/>
            <path d="M69.293 69.04c78.277 57.997 120.117 88.749 125.096 91.714 8.698 5.18 92.222 50.324 125.484 91.399 35.479 43.813 57.98 124.83 63.312 141.744 5.332 16.914 30.92 100.556 63.7 141.43 22.838 28.476 107.384 80.965 125.096 91.714 17.712 10.75 73.72 27.477 125.484 91.4 48.973 60.475 54.593 119.853 63.312 141.744 5.813 14.594 27.047 61.737 63.7 141.43" transform="translate(-263 -280) translate(0 475)"/>
            <path d="M46.367 87.602c78.277 57.997 120.118 88.748 125.096 91.713 8.699 5.18 92.223 50.325 125.484 91.4 35.48 43.813 57.98 124.83 63.312 141.744 5.333 16.914 30.921 100.555 63.7 141.43 22.838 28.476 107.385 80.965 125.096 91.714 17.712 10.749 73.721 27.477 125.484 91.399 48.973 60.476 54.593 119.854 63.313 141.745 5.813 14.594 27.046 61.737 63.7 141.43" transform="translate(-263 -280) translate(0 475)"/>
            <path d="M23.442 106.164c78.277 57.997 120.117 88.748 125.096 91.713 8.698 5.18 92.222 50.325 125.483 91.4 35.48 43.812 57.98 124.83 63.313 141.744 5.332 16.913 30.92 100.555 63.7 141.43 22.837 28.476 107.384 80.965 125.096 91.714 17.712 10.749 73.72 27.477 125.484 91.399 48.972 60.476 54.592 119.853 63.312 141.744 5.813 14.594 27.046 61.738 63.7 141.43" transform="translate(-263 -280) translate(0 475)"/>
            <path d="M.516 124.725c78.277 57.997 120.117 88.749 125.096 91.714 8.698 5.18 92.222 50.324 125.484 91.399 35.479 43.813 57.98 124.831 63.312 141.745 5.332 16.913 30.92 100.555 63.7 141.43 22.837 28.475 107.384 80.964 125.096 91.713 17.712 10.75 73.72 27.477 125.484 91.4C677.66 834.601 683.28 893.978 692 915.87c5.813 14.594 27.047 61.738 63.7 141.43" transform="translate(-263 -280) translate(0 475)"/>
        </g>
        <g stroke="#5B9AF8">
            <path d="M92.219 50.478c78.277 57.997 120.117 88.749 125.096 91.714 8.698 5.18 92.222 50.324 125.483 91.399 35.48 43.813 57.98 124.831 63.313 141.745 5.332 16.913 30.92 100.555 63.7 141.43 22.837 28.475 107.384 80.964 125.096 91.713 17.712 10.75 73.72 27.477 125.484 91.4 48.972 60.476 54.592 119.853 63.312 141.744 5.813 14.594 27.046 61.738 63.7 141.43" transform="translate(-263 -280) translate(1097)"/>
            <path d="M69.293 69.04c78.277 57.997 120.117 88.749 125.096 91.714 8.698 5.18 92.222 50.324 125.484 91.399 35.479 43.813 57.98 124.83 63.312 141.744 5.332 16.914 30.92 100.556 63.7 141.43 22.838 28.476 107.384 80.965 125.096 91.714 17.712 10.75 73.72 27.477 125.484 91.4 48.973 60.475 54.593 119.853 63.312 141.744 5.813 14.594 27.047 61.737 63.7 141.43" transform="translate(-263 -280) translate(1097)"/>
            <path d="M46.367 87.602c78.277 57.997 120.118 88.748 125.096 91.713 8.699 5.18 92.223 50.325 125.484 91.4 35.48 43.813 57.98 124.83 63.312 141.744 5.333 16.914 30.921 100.555 63.7 141.43 22.838 28.476 107.385 80.965 125.096 91.714 17.712 10.749 73.721 27.477 125.484 91.399 48.973 60.476 54.593 119.854 63.313 141.745 5.813 14.594 27.046 61.737 63.7 141.43" transform="translate(-263 -280) translate(1097)"/>
            <path d="M23.442 106.164c78.277 57.997 120.117 88.748 125.096 91.713 8.698 5.18 92.222 50.325 125.483 91.4 35.48 43.812 57.98 124.83 63.313 141.744 5.332 16.913 30.92 100.555 63.7 141.43 22.837 28.476 107.384 80.965 125.096 91.714 17.712 10.749 73.72 27.477 125.484 91.399 48.972 60.476 54.592 119.853 63.312 141.744 5.813 14.594 27.046 61.738 63.7 141.43" transform="translate(-263 -280) translate(1097)"/>
            <path d="M.516 124.725c78.277 57.997 120.117 88.749 125.096 91.714 8.698 5.18 92.222 50.324 125.484 91.399 35.479 43.813 57.98 124.831 63.312 141.745 5.332 16.913 30.92 100.555 63.7 141.43 22.837 28.475 107.384 80.964 125.096 91.713 17.712 10.75 73.72 27.477 125.484 91.4C677.66 834.601 683.28 893.978 692 915.87c5.813 14.594 27.047 61.738 63.7 141.43" transform="translate(-263 -280) translate(1097)"/>
        </g>
    </g>
</svg>
